<svg width="386" height="505" viewBox="0 0 386 505" fill="none" xmlns="http://www.w3.org/2000/svg">
    <line opacity="0.1" x1="312.535" y1="470.815" x2="352.535" y2="369.815" stroke="black"/>
    <line opacity="0.4" x1="283.559" y1="408.235" x2="185.559" y2="224.235" stroke="black"/>
    <line opacity="0.1" x1="283.667" y1="410.373" x2="173.667" y2="312.373" stroke="black"/>
    <line opacity="0.1" x1="283.508" y1="410.911" x2="329.508" y2="156.911" stroke="black"/>
    <line opacity="0.5" x1="284.502" y1="411.047" x2="262.503" y2="179.047" stroke="black"/>
    <line opacity="0.1" x1="283.503" y1="409.053" x2="268.503" y2="268.053" stroke="black"/>
    <line opacity="0.1" x1="313.512" y1="471.111" x2="268.512" y2="272.111" stroke="black"/>
    <line opacity="0.4" x1="314.841" y1="472.474" x2="153.841" y2="418.474" stroke="black"/>
    <line opacity="0.1" x1="284.821" y1="411.466" x2="81.8209" y2="333.466" stroke="black"/>
    <line opacity="0.1" x1="173.54" y1="312.196" x2="118.54" y2="183.196" stroke="black"/>
    <line opacity="0.4" x1="172.688" y1="312.391" x2="39.6884" y2="206.391" stroke="black"/>
    <line opacity="0.1" x1="173.112" y1="312.487" x2="82.1124" y2="333.487" stroke="black"/>
    <line opacity="0.1" x1="10.6595" y1="386.634" x2="185.659" y2="223.634" stroke="black"/>
    <line opacity="0.4" x1="10.795" y1="387.544" x2="268.795" y2="271.544" stroke="black"/>
    <line opacity="0.3" x1="10.7062" y1="388.595" x2="329.706" y2="156.595" stroke="black"/>
    <line opacity="0.1" x1="82.5265" y1="333.16" x2="39.5265" y2="206.16" stroke="black"/>
    <line opacity="0.5" x1="81.5142" y1="334.882" x2="118.514" y2="182.882" stroke="black"/>
    <line opacity="0.1" x1="81.5003" y1="335.018" x2="71.5003" y2="56.0179" stroke="black"/>
    <line opacity="0.1" x1="72.4891" y1="56.1043" x2="40.4891" y2="206.104" stroke="black"/>
    <line opacity="0.1" x1="72.4694" y1="54.828" x2="119.469" y2="182.828" stroke="black"/>
    <line opacity="0.4" x1="72.3711" y1="53.6645" x2="269.371" y2="271.664" stroke="black"/>
    <line opacity="0.2" x1="71.2698" y1="55.579" x2="263.27" y2="178.579" stroke="black"/>
    <line opacity="0.3" x1="71.1836" y1="54.5344" x2="330.184" y2="156.534" stroke="black"/>
    <line opacity="0.3" x1="336.496" y1="23.0666" x2="284.496" y2="410.067" stroke="black"/>
    <line opacity="0.1" x1="336.483" y1="22.1308" x2="269.483" y2="270.131" stroke="black"/>
    <line opacity="0.1" x1="336.453" y1="23.2119" x2="263.453" y2="179.212" stroke="black"/>
    <line opacity="0.4" x1="336.436" y1="23.2456" x2="173.436" y2="312.246" stroke="black"/>
    <line opacity="0.3" x1="337.294" y1="25.4048" x2="119.294" y2="183.405" stroke="black"/>
    <line opacity="0.1" x1="329.084" y1="157.493" x2="40.084" y2="206.493" stroke="black"/>
    <line opacity="0.3" x1="263.06" y1="179.496" x2="40.0601" y2="206.496" stroke="black"/>
    <line opacity="0.2" x1="118.979" y1="184.5" x2="262.979" y2="178.5" stroke="black"/>
    <line opacity="0.5" x1="121.252" y1="185.568" x2="186.252" y2="223.568" stroke="black"/>
    <line opacity="0.1" x1="184.759" y1="223.562" x2="262.759" y2="180.562" stroke="black"/>
    <line opacity="0.1" x1="184.788" y1="224.547" x2="329.788" y2="156.547" stroke="black"/>
    <line opacity="0.1" x1="40.0614" y1="206.504" x2="185.061" y2="224.504" stroke="black"/>
    <line opacity="0.5" x1="41.1332" y1="206.518" x2="269.133" y2="269.518" stroke="black"/>
    <line opacity="0.1" x1="185.236" y1="224.559" x2="269.236" y2="269.559" stroke="black"/>
    <line opacity="0.2" x1="351.503" y1="370.054" x2="328.503" y2="157.054" stroke="black"/>
    <line opacity="0.2" x1="352.547" y1="371.212" x2="262.547" y2="179.212" stroke="black"/>
    <line opacity="0.3" x1="269.559" y1="269.765" x2="329.559" y2="156.765" stroke="black"/>
    <line opacity="0.1" x1="264.493" y1="178.918" x2="313.493" y2="471.918" stroke="black"/>
    <line opacity="0.4" x1="153.506" y1="418.073" x2="118.506" y2="183.073" stroke="black"/>
    <line opacity="0.1" x1="153.508" y1="417.911" x2="172.508" y2="311.911" stroke="black"/>
    <line opacity="0.5" x1="282.956" y1="411.498" x2="10.9561" y2="387.498" stroke="black"/>
    <line opacity="0.1" x1="154.969" y1="417.501" x2="283.969" y2="409.501" stroke="black"/>
    <line opacity="0.1" x1="351.672" y1="370.377" x2="183.672" y2="224.377" stroke="black"/>
    <line opacity="0.3" x1="352.617" y1="371.322" x2="267.617" y2="270.322" stroke="black"/>
    <line opacity="0.4" x1="352.768" y1="370.443" x2="39.7677" y2="206.443" stroke="black"/>
    <line opacity="0.1" x1="12.5054" y1="388.927" x2="39.5054" y2="206.927" stroke="black"/>
    <line opacity="0.1" x1="12.5561" y1="387.77" x2="118.556" y2="182.77" stroke="black"/>
    <circle opacity="0.9" cx="284" cy="409" r="29" transform="rotate(-180 284 409)" fill="#CCDADA"/>
    <circle opacity="0.9" cx="353" cy="370" r="33" transform="rotate(-180 353 370)" fill="#33696A"/>
    <circle opacity="0.9" cx="173.5" cy="311.5" r="21.5" transform="rotate(-180 173.5 311.5)" fill="#33696A"/>
    <circle opacity="0.9" cx="263.5" cy="179.5" r="26.5" transform="rotate(-180 263.5 179.5)" fill="#CCDADA"/>
    <circle opacity="0.9" cx="330" cy="157" r="17" transform="rotate(-180 330 157)" fill="#33696A"/>
    <circle opacity="0.9" cx="336.5" cy="23.5" r="23.5" transform="rotate(-180 336.5 23.5)" fill="#004445"/>
    <circle opacity="0.9" cx="72.0001" cy="56" r="14" transform="rotate(-180 72.0001 56)" fill="#CCDADA"/>
    <circle opacity="0.9" cx="119" cy="183" r="14" transform="rotate(-180 119 183)" fill="#004445"/>
    <circle opacity="0.9" cx="40" cy="206" r="18" transform="rotate(-180 40 206)" fill="#004445"/>
    <circle opacity="0.9" cx="186" cy="224" r="9" transform="rotate(-180 186 224)" fill="#99B4B5"/>
    <circle opacity="0.9" cx="82.5" cy="332.5" r="14.5" transform="rotate(-180 82.5 332.5)" fill="#33696A"/>
    <circle opacity="0.9" cx="154" cy="418" r="16" transform="rotate(-180 154 418)" fill="#004445"/>
    <circle opacity="0.9" cx="11" cy="387" r="11" transform="rotate(-180 11 387)" fill="#004445"/>
    <circle opacity="0.9" cx="313" cy="471" r="34" transform="rotate(-180 313 471)" fill="#99B4B5"/>
    <circle opacity="0.9" cx="269" cy="268" r="22" transform="rotate(-180 269 268)" fill="#99B4B5"/>
</svg>
